<svg width="135" height="42" viewBox="0 0 135 42" fill="none" xmlns="http://www.w3.org/2000/svg">
<path d="M93.0423 28.996H91.3474V20.6632L90.144 25.9048H88.4491L87.2457 20.5876V28.9876H85.5V12.9772H87.2457L89.305 22.0828L91.3813 13.0192V12.9688H93.0762V28.996H93.0423Z" fill="white"/>
<path d="M97.7208 28.9879H95.9751V12.9775H97.7208V28.9879Z" fill="white"/>
<path d="M104.236 15.2032C104.239 15.0797 104.216 14.9571 104.169 14.8428C104.122 14.7286 104.051 14.625 103.963 14.5385C103.874 14.452 103.768 14.3844 103.652 14.3398C103.536 14.2952 103.412 14.2746 103.287 14.2792C103.049 14.2853 102.823 14.3806 102.653 14.5458C102.483 14.711 102.383 14.9339 102.372 15.1696V17.3032C102.391 17.9219 102.624 18.5153 103.033 18.9832L104.897 21.0916C105.664 22.0291 106.034 23.2241 105.931 24.4264V27.0724C105.928 27.3473 105.869 27.6189 105.759 27.8712C105.648 28.1234 105.488 28.3513 105.288 28.5414C105.087 28.7315 104.851 28.88 104.592 28.9783C104.332 29.0765 104.056 29.1225 103.779 29.1136H102.686C102.147 29.105 101.633 28.8904 101.251 28.5146C100.869 28.1389 100.648 27.6311 100.635 27.0976V25.132L102.33 24.4012V26.8792C102.352 27.1058 102.458 27.3162 102.628 27.4693C102.798 27.6223 103.019 27.7072 103.249 27.7072C103.479 27.7072 103.7 27.6223 103.87 27.4693C104.04 27.3162 104.147 27.1058 104.169 26.8792V24.1156C104.128 23.3835 103.865 22.6806 103.414 22.0996L101.694 20.1592C100.635 19.0504 100.635 18.2608 100.635 16.7992V14.9932C100.646 14.4345 100.876 13.902 101.276 13.5084C101.676 13.1149 102.215 12.8912 102.779 12.8848H103.847C104.399 12.9101 104.92 13.1416 105.307 13.5327C105.694 13.9239 105.917 14.4457 105.931 14.9932V15.9592L104.236 16.69V15.2032Z" fill="white"/>
<path d="M113.279 14.5726H110.592V19.7386H113.312L112.389 21.3766H110.601V28.9366H108.906V12.9346H114.245L113.279 14.5726Z" fill="white"/>
<path d="M117.923 28.9879H116.186V12.9775H117.932V28.9879H117.923Z" fill="white"/>
<path d="M124.381 28.9873H122.627V14.7073H119.915V13.0273H127.118V14.7073H124.381V28.9873Z" fill="white"/>
<path d="M132.686 15.2032C132.69 15.0801 132.668 14.9577 132.622 14.8435C132.576 14.7292 132.506 14.6255 132.418 14.5389C132.33 14.4523 132.225 14.3845 132.109 14.3398C131.993 14.2952 131.87 14.2745 131.746 14.2792C131.506 14.2832 131.277 14.3776 131.106 14.543C130.934 14.7084 130.833 14.9325 130.822 15.1696V17.3032C130.84 17.9219 131.074 18.5153 131.483 18.9832L133.347 21.0916C134.103 22.0089 134.476 23.178 134.39 24.3592V27.0052C134.388 27.2798 134.33 27.5512 134.22 27.8034C134.111 28.0556 133.951 28.2835 133.752 28.4737C133.552 28.6639 133.316 28.8126 133.057 28.911C132.798 29.0093 132.522 29.0553 132.246 29.0464H131.161C130.622 29.0379 130.107 28.8236 129.723 28.448C129.339 28.0724 129.117 27.5646 129.102 27.0304V25.132L130.796 24.4012V26.8792C130.818 27.1058 130.925 27.3162 131.095 27.4693C131.265 27.6223 131.486 27.7072 131.716 27.7072C131.946 27.7072 132.167 27.6223 132.337 27.4693C132.507 27.3162 132.613 27.1058 132.635 26.8792V24.1156C132.595 23.3835 132.332 22.6806 131.881 22.0996L130.169 20.1592C129.102 19.0504 129.102 18.2608 129.102 16.7992V14.9932C129.113 14.4331 129.344 13.8993 129.746 13.5055C130.148 13.1118 130.689 12.889 131.254 12.8848H132.313C132.864 12.9121 133.384 13.1445 133.769 13.5355C134.154 13.9264 134.375 14.447 134.39 14.9932V15.9592L132.695 16.69V15.2032H132.686Z" fill="white"/>
<path d="M3.59316 15.2041C3.59555 15.0807 3.57251 14.9581 3.52544 14.8438C3.47837 14.7295 3.40826 14.626 3.31941 14.5395C3.23056 14.453 3.12483 14.3854 3.0087 14.3408C2.89257 14.2962 2.76848 14.2755 2.64402 14.2801C2.52049 14.279 2.39795 14.3021 2.2834 14.3479C2.16884 14.3937 2.06452 14.4615 1.97638 14.5473C1.88825 14.6331 1.81802 14.7353 1.76972 14.848C1.72143 14.9607 1.696 15.0817 1.69489 15.2041V17.3377C1.7135 17.9565 1.94698 18.5499 2.35589 19.0177L4.23722 21.1597C4.9929 22.077 5.36585 23.2462 5.27958 24.4273V27.0733C5.27634 27.3483 5.21776 27.6199 5.10727 27.8722C4.99679 28.1244 4.83661 28.3523 4.63614 28.5424C4.43567 28.7325 4.19893 28.881 3.9398 28.9793C3.68067 29.0775 3.40436 29.1235 3.12707 29.1145H2.05929C1.52081 29.1041 1.00694 28.8891 0.62374 28.5139C0.240544 28.1388 0.0172698 27.6321 0 27.0985L0 25.1329L1.69489 24.4021V26.8801C1.69451 26.9963 1.71846 27.1114 1.76523 27.2179C1.81199 27.3245 1.88055 27.4202 1.96657 27.4992C2.05259 27.5781 2.1542 27.6385 2.26497 27.6766C2.37574 27.7146 2.49327 27.7294 2.61013 27.7201C2.72766 27.7307 2.84611 27.7168 2.9579 27.6793C3.06969 27.6418 3.17235 27.5816 3.2593 27.5025C3.34626 27.4234 3.4156 27.3272 3.46287 27.2201C3.51015 27.1129 3.53432 26.9971 3.53384 26.8801V24.1165C3.49367 23.3844 3.23072 22.6816 2.77962 22.1005L1.0593 20.1601C0 19.0681 0 18.2701 0 16.8001V14.9941C0.010973 14.4355 0.240909 13.903 0.641108 13.5094C1.04131 13.1159 1.58034 12.8922 2.14403 12.8857H3.21181C3.76227 12.9131 4.28201 13.1455 4.66699 13.5364C5.05197 13.9274 5.27379 14.448 5.28805 14.9941V15.9601L3.59316 16.6909V15.2041Z" fill="white"/>
<path d="M19.8051 12.9785H18.1102L15.5679 28.9889H17.4746L19.0085 17.9429L20.5254 28.9889H22.4322C21.5085 23.6297 20.6864 18.3377 19.8051 12.9785Z" fill="white"/>
<path d="M29.9146 27.0651C29.8994 27.6046 29.6753 28.1176 29.2887 28.4977C28.9021 28.8778 28.3827 29.0957 27.8383 29.1063H26.7536C26.4751 29.1153 26.1975 29.0694 25.937 28.9715C25.6764 28.8735 25.438 28.7254 25.2355 28.5356C25.033 28.3458 24.8704 28.1182 24.7572 27.8658C24.6439 27.6134 24.5823 27.3413 24.5757 27.0651V14.9271C24.5934 14.3753 24.8288 13.8523 25.2313 13.4707C25.6338 13.089 26.1712 12.879 26.7282 12.8859H27.8129C28.36 12.8881 28.8842 13.1033 29.2727 13.4851C29.6611 13.867 29.8825 14.3849 29.8892 14.9271V17.7327C29.2959 18.0855 28.7282 18.3627 28.1349 18.7155V15.1791C28.1049 14.9619 27.9965 14.7628 27.8298 14.6186C27.6631 14.4745 27.4494 14.3951 27.2282 14.3951C27.007 14.3951 26.7932 14.4745 26.6265 14.6186C26.4598 14.7628 26.3515 14.9619 26.3214 15.1791V26.8131C26.321 26.9293 26.345 27.0443 26.3918 27.1509C26.4385 27.2574 26.5071 27.3532 26.5931 27.4322C26.6791 27.5111 26.7807 27.5715 26.8915 27.6095C27.0023 27.6476 27.1198 27.6624 27.2367 27.6531C27.4669 27.6555 27.6892 27.5694 27.8567 27.4127C28.0243 27.2561 28.124 27.0411 28.1349 26.8131V24.2931C28.1349 24.2931 29.6519 23.3943 29.8892 23.2851L29.9146 27.0651Z" fill="white"/>
<path d="M37.287 14.5745H34.5836V19.7405H37.287L36.3548 21.3785H34.5836V27.3257H38.1768L37.287 28.9637H32.8379V12.9365H38.1768L37.287 14.5745Z" fill="white"/>
<path d="M13.5588 14.8765C13.5369 14.4578 13.3875 14.0555 13.1303 13.7226C12.8731 13.3897 12.5202 13.1419 12.1181 13.0117C11.8904 12.9279 11.6493 12.8853 11.4063 12.8857H8.21143V29.0137H9.95716V22.1677H11.3809C11.6087 22.1697 11.8352 22.1328 12.0503 22.0585C12.471 21.9391 12.843 21.6914 13.1137 21.3507C13.3844 21.01 13.5402 20.5935 13.5588 20.1601V14.8765ZM11.8639 19.7149C11.8343 19.9289 11.7227 20.1233 11.5522 20.2578C11.3818 20.3923 11.1657 20.4566 10.9487 20.4373H9.96564V14.6161H10.8809C10.9984 14.6056 11.1169 14.6195 11.2286 14.657C11.3404 14.6945 11.4431 14.7547 11.53 14.8338C11.617 14.9128 11.6863 15.009 11.7336 15.1162C11.7809 15.2234 11.8051 15.3392 11.8046 15.4561L11.8639 19.7149Z" fill="white"/>
<path d="M59.8634 0H59.7617C59.6183 0.00113331 59.4812 0.0585177 59.3804 0.1596L59.1855 0.3612C59.9143 1.68 63.2786 7.3248 66.2277 12.2808L66.5921 11.6592L59.8634 0ZM73.2191 7.014L73.3886 7.854H80.9394L61.7956 40.32L48.7534 18.2028L50.8466 19.404C50.9591 19.4682 51.0926 19.4856 51.218 19.4526C51.3435 19.4195 51.4506 19.3387 51.5161 19.2276L53.7025 15.5484C53.786 15.4124 53.8377 15.2595 53.8538 15.1011C53.87 14.9426 53.8501 14.7826 53.7957 14.6328C53.0161 12.3732 52.2449 10.1136 51.4652 7.8624C51.3636 7.5684 51.2703 7.2828 51.1686 7.0224C51.067 6.762 50.9653 6.4008 50.8551 6.0984C51.1691 6.37339 51.4531 6.68027 51.7025 7.014C51.8212 7.182 51.9313 7.35 52.033 7.5264L52.2364 7.8792L58.6516 18.984C58.6987 19.0596 58.7152 19.1501 58.698 19.2373C58.6807 19.3245 58.6308 19.402 58.5584 19.4544L56.0838 21.2268C55.9971 21.285 55.9268 21.3641 55.8793 21.4567C55.8319 21.5493 55.8089 21.6522 55.8126 21.756V25.8972C55.8124 25.9256 55.819 25.9536 55.832 25.9789C55.8449 26.0041 55.8639 26.0259 55.8872 26.0424C55.9104 26.0589 55.9374 26.0696 55.9657 26.0736C55.9941 26.0775 56.0229 26.0747 56.0499 26.0652L58.4736 25.2C58.5333 25.1754 58.596 25.1585 58.66 25.1496L60.3549 22.2264C60.2065 22.131 60.0846 22.0004 60.0002 21.8463C59.9158 21.6922 59.8717 21.5197 59.8719 21.3444C59.8721 21.0936 59.9613 20.8509 60.1241 20.6589C60.2868 20.4669 60.5125 20.3378 60.7617 20.2944C60.6747 20.0911 60.6524 19.8663 60.6979 19.6502C60.7433 19.434 60.8543 19.2367 61.0159 19.0848C61.1803 18.9177 61.3962 18.8096 61.6295 18.7776C61.8628 18.7457 62.1001 18.7917 62.3041 18.9084L64.2701 15.5484L56.4397 2.0748L51.0839 5.04C50.9761 5.10064 50.8831 5.18397 50.8114 5.28411C50.7396 5.38425 50.6909 5.49877 50.6687 5.6196L50.3975 6.9972H41.1519L61.8041 42L82.4563 6.9972L73.2191 7.014ZM42.6518 7.854H50.2195L48.3043 17.472L42.6518 7.854ZM65.2532 0.966C64.9422 0.806899 64.6566 0.603096 64.4057 0.3612C64.3422 0.289869 64.2743 0.222538 64.2023 0.1596C64.1553 0.110428 64.0988 0.0710029 64.0363 0.043607C63.9737 0.016211 63.9063 0.00138919 63.8379 0L63.5583 0L68.4735 8.442L71.0158 4.1664L65.2532 0.966Z" fill="white"/>
<path d="M75.0407 15.9602C74.6679 14.1542 73.8882 10.3322 73.3458 7.8626L73.1764 7.0226C73.1764 7.0226 72.9136 5.729 72.8797 5.603C72.8611 5.48945 72.8192 5.38091 72.7565 5.2841C72.6938 5.18729 72.6117 5.10427 72.5153 5.0402L70.9984 4.2002L68.4561 8.4758C70.8967 12.6758 73.456 17.0606 74.0153 18.0182C74.0318 18.0408 74.0535 18.0591 74.0785 18.0718C74.1036 18.0844 74.1313 18.091 74.1594 18.091C74.1875 18.091 74.2152 18.0844 74.2402 18.0718C74.2653 18.0591 74.287 18.0408 74.3035 18.0182C74.4899 17.699 74.6594 17.3966 74.8373 17.0774C75.0388 16.7415 75.111 16.3447 75.0407 15.9602V15.9602ZM71.2696 19.7822L66.5917 11.6594L66.2273 12.281C68.4137 15.9602 70.3374 19.2446 70.8544 20.0174C70.8716 20.0424 70.8974 20.0604 70.927 20.0682C70.9565 20.0759 70.9879 20.0728 71.0154 20.0594L71.2357 19.9418C71.2611 19.9247 71.2788 19.8985 71.2851 19.8688C71.2914 19.839 71.2859 19.808 71.2696 19.7822ZM67.7951 21.7646C67.7956 21.6463 67.7634 21.53 67.7019 21.4286L64.3121 15.5486L62.346 18.9086C62.433 18.9524 62.5106 19.0122 62.5748 19.085C62.7276 19.2339 62.8313 19.4251 62.8721 19.6336C62.913 19.842 62.8891 20.0579 62.8036 20.2526C62.97 20.2834 63.1266 20.3529 63.2605 20.4554C63.3944 20.558 63.5019 20.6906 63.5739 20.8424C63.646 20.9942 63.6806 21.1608 63.6749 21.3284C63.6693 21.4961 63.6235 21.66 63.5414 21.8067C63.4592 21.9533 63.3431 22.0785 63.2026 22.172C63.062 22.2654 62.9011 22.3244 62.733 22.3441C62.565 22.3638 62.3946 22.3436 62.236 22.2852C62.0773 22.2268 61.9349 22.1319 61.8206 22.0082C61.7148 22.1258 61.5838 22.2186 61.4371 22.2796C61.2905 22.3406 61.132 22.3685 60.9732 22.361C60.7617 22.3648 60.5544 22.3031 60.3799 22.1846L58.6851 25.1078C58.8662 25.0659 59.0547 25.0659 59.2359 25.1078C61.4732 25.679 61.7782 30.8198 61.7782 31.3994C61.7782 30.8198 62.1087 25.679 64.3206 25.1078C64.5582 25.0368 64.8117 25.0368 65.0494 25.1078L67.6002 26.0402C67.6265 26.0494 67.6546 26.0524 67.6823 26.0489C67.71 26.0454 67.7365 26.0354 67.7595 26.0199C67.7826 26.0044 67.8017 25.9837 67.8153 25.9595C67.8288 25.9353 67.8364 25.9082 67.8375 25.8806L67.7951 21.7646Z" fill="url(#paint0_linear_3907_19422)"/>
<path d="M50.2195 7.8624L48.3043 17.472L42.6519 7.8624H50.2195ZM73.3886 7.8624C73.8886 10.332 74.6683 14.154 75.0835 15.96C75.1531 16.3307 75.0902 16.7139 74.9056 17.0436C74.7276 17.3628 74.5581 17.6652 74.3717 17.9844C74.3552 18.007 74.3335 18.0253 74.3085 18.038C74.2834 18.0506 74.2557 18.0572 74.2276 18.0572C74.1995 18.0572 74.1718 18.0506 74.1467 18.038C74.1217 18.0253 74.1 18.007 74.0835 17.9844C73.5242 17.0268 70.965 12.642 68.5243 8.442L63.5583 0H59.8634L66.5921 11.6592L71.27 19.782C71.2903 19.8037 71.3015 19.8322 71.3015 19.8618C71.3015 19.8914 71.2903 19.9199 71.27 19.9416L71.0497 20.0592C71.0222 20.0726 70.9909 20.0757 70.9613 20.068C70.9317 20.0603 70.9059 20.0422 70.8887 20.0172C70.4056 19.2444 68.448 15.96 66.2616 12.2808C63.2786 7.3248 59.9143 1.68 59.1685 0.3696C59.0656 0.483481 58.9521 0.587537 58.8296 0.6804C58.7218 0.768567 58.6086 0.849927 58.4906 0.924L56.4398 2.0748L64.2956 15.5652L67.6853 21.4452C67.7468 21.5466 67.7791 21.6629 67.7786 21.7812V25.9308C67.7775 25.9584 67.7699 25.9855 67.7564 26.0097C67.7428 26.0339 67.7237 26.0546 67.7006 26.0701C67.6776 26.0856 67.6511 26.0956 67.6234 26.0991C67.5957 26.1026 67.5676 26.0996 67.5413 26.0904L65.1091 25.2C64.8715 25.129 64.618 25.129 64.3803 25.2C62.1431 25.7712 61.838 30.912 61.838 31.4916C61.838 30.912 61.5075 25.7712 59.2957 25.2C59.1145 25.1581 58.926 25.1581 58.7448 25.2C58.6551 25.1839 58.5633 25.1839 58.4736 25.2L56.016 26.04C55.9891 26.0495 55.9602 26.0523 55.9318 26.0484C55.9035 26.0444 55.8766 26.0337 55.8533 26.0172C55.83 26.0007 55.8111 25.9789 55.7981 25.9537C55.7851 25.9284 55.7785 25.9004 55.7788 25.872V21.7308C55.7751 21.627 55.798 21.5241 55.8454 21.4315C55.8929 21.339 55.9632 21.2598 56.0499 21.2016L58.5245 19.4292C58.5969 19.3768 58.6468 19.2993 58.6641 19.2121C58.6814 19.1249 58.6648 19.0344 58.6177 18.9588L52.228 7.8624L52.0246 7.5096C51.9229 7.3332 51.8127 7.1652 51.6941 6.9972C51.4447 6.66347 51.1606 6.35659 50.8466 6.0816C50.9568 6.384 51.0585 6.7032 51.1602 7.0056C51.2619 7.308 51.3551 7.5768 51.4568 7.8456C52.2364 10.0968 53.0076 12.3564 53.7873 14.616C53.8417 14.7658 53.8615 14.9258 53.8454 15.0843C53.8292 15.2427 53.7775 15.3956 53.694 15.5316L51.5076 19.2108C51.4421 19.3219 51.335 19.4027 51.2096 19.4358C51.0842 19.4688 50.9506 19.4514 50.8382 19.3872L48.728 18.186L61.7956 40.32L80.9394 7.8624H73.3886ZM62.7871 20.2524C62.8726 20.0577 62.8964 19.8418 62.8556 19.6334C62.8147 19.4249 62.7111 19.2337 62.5583 19.0848C62.4941 19.012 62.4164 18.9522 62.3295 18.9084C62.1256 18.7917 61.8882 18.7457 61.6549 18.7776C61.4216 18.8096 61.2058 18.9177 61.0414 19.0848C60.8925 19.2361 60.7916 19.4272 60.7509 19.6347C60.7103 19.8422 60.7317 20.0569 60.8126 20.2524C60.5634 20.2958 60.3376 20.4249 60.1749 20.6169C60.0122 20.8089 59.9229 21.0516 59.9228 21.3024C59.9226 21.4777 59.9667 21.6502 60.0511 21.8043C60.1355 21.9584 60.2574 22.089 60.4058 22.1844C60.5802 22.3029 60.7876 22.3646 60.999 22.3608C61.1579 22.3683 61.3164 22.3404 61.463 22.2794C61.6096 22.2184 61.7406 22.1256 61.8465 22.008C61.9602 22.1368 62.1035 22.2365 62.2643 22.2988C62.4251 22.3612 62.5986 22.3842 62.7703 22.3661C62.942 22.3479 63.1067 22.2891 63.2507 22.1946C63.3946 22.1001 63.5135 21.9726 63.5972 21.823C63.681 21.6734 63.7273 21.5059 63.7321 21.3349C63.7368 21.1638 63.7001 20.9941 63.6248 20.8401C63.5495 20.6861 63.4379 20.5523 63.2995 20.45C63.1611 20.3477 62.9999 20.28 62.8295 20.2524H62.7871Z" fill="url(#paint1_linear_3907_19422)"/>
<defs>
<linearGradient id="paint0_linear_3907_19422" x1="73.5577" y1="9.635" x2="62.9569" y2="26.8884" gradientUnits="userSpaceOnUse">
<stop stop-color="#9C9E9D"/>
<stop offset="0.19" stop-color="#A7A0A4"/>
<stop offset="0.69" stop-color="#BEA5B4"/>
<stop offset="1" stop-color="#C7A7BA"/>
</linearGradient>
<linearGradient id="paint1_linear_3907_19422" x1="42.6519" y1="20.1516" x2="80.9394" y2="20.1516" gradientUnits="userSpaceOnUse">
<stop stop-color="#CD0A73"/>
<stop offset="0.57"/>
</linearGradient>
</defs>
</svg>
