<svg width="13" height="16" viewBox="0 0 13 16" fill="none" xmlns="http://www.w3.org/2000/svg">
<path d="M12.5312 5.705C12.5234 5.6361 12.5084 5.56822 12.4862 5.5025V5.435C12.4502 5.35788 12.4021 5.287 12.3438 5.225L7.84375 0.725C7.78175 0.666662 7.71087 0.618561 7.63375 0.5825H7.55875C7.48582 0.543502 7.40745 0.515691 7.32625 0.5H2.78125C2.18451 0.5 1.61222 0.737053 1.19026 1.15901C0.768303 1.58097 0.53125 2.15326 0.53125 2.75V13.25C0.53125 13.8467 0.768303 14.419 1.19026 14.841C1.61222 15.2629 2.18451 15.5 2.78125 15.5H10.2812C10.878 15.5 11.4503 15.2629 11.8722 14.841C12.2942 14.419 12.5312 13.8467 12.5312 13.25V5.75C12.5312 5.75 12.5312 5.75 12.5312 5.705ZM8.03125 3.0575L9.97375 5H8.78125C8.58234 5 8.39157 4.92098 8.25092 4.78033C8.11027 4.63968 8.03125 4.44891 8.03125 4.25V3.0575ZM11.0312 13.25C11.0312 13.4489 10.9522 13.6397 10.8116 13.7803C10.6709 13.921 10.4802 14 10.2812 14H2.78125C2.58234 14 2.39157 13.921 2.25092 13.7803C2.11027 13.6397 2.03125 13.4489 2.03125 13.25V2.75C2.03125 2.55109 2.11027 2.36032 2.25092 2.21967C2.39157 2.07902 2.58234 2 2.78125 2H6.53125V4.25C6.53125 4.84674 6.7683 5.41903 7.19026 5.84099C7.61222 6.26295 8.18451 6.5 8.78125 6.5H11.0312V13.25ZM7.49875 9.7175L7.28125 9.9425V8C7.28125 7.80109 7.20223 7.61032 7.06158 7.46967C6.92093 7.32902 6.73016 7.25 6.53125 7.25C6.33234 7.25 6.14157 7.32902 6.00092 7.46967C5.86027 7.61032 5.78125 7.80109 5.78125 8V9.9425L5.56375 9.7175C5.42252 9.57627 5.23098 9.49693 5.03125 9.49693C4.83152 9.49693 4.63998 9.57627 4.49875 9.7175C4.35752 9.85873 4.27818 10.0503 4.27818 10.25C4.27818 10.4497 4.35752 10.6413 4.49875 10.7825L5.99875 12.2825C6.07008 12.3508 6.15419 12.4043 6.24625 12.44C6.33603 12.4797 6.4331 12.5002 6.53125 12.5002C6.6294 12.5002 6.72647 12.4797 6.81625 12.44C6.90831 12.4043 6.99242 12.3508 7.06375 12.2825L8.56375 10.7825C8.70498 10.6413 8.78432 10.4497 8.78432 10.25C8.78432 10.0503 8.70498 9.85873 8.56375 9.7175C8.42252 9.57627 8.23098 9.49693 8.03125 9.49693C7.83152 9.49693 7.63998 9.57627 7.49875 9.7175Z" fill="#2E3966"/>
</svg>
