<svg width="72" height="73" viewBox="0 0 72 73" fill="none" xmlns="http://www.w3.org/2000/svg">
<path d="M35.9993 38.4163C35.4158 38.4095 34.8442 38.5816 34.3614 38.9095C33.8787 39.2374 33.508 39.7053 33.2992 40.2502C33.0904 40.7952 33.0536 41.391 33.1936 41.9575C33.3337 42.524 33.644 43.034 34.0827 43.4188V46.083C34.0827 46.5913 34.2846 47.0789 34.6441 47.4383C35.0035 47.7977 35.491 47.9997 35.9993 47.9997C36.5077 47.9997 36.9952 47.7977 37.3546 47.4383C37.7141 47.0789 37.916 46.5913 37.916 46.083V43.4188C38.3547 43.034 38.665 42.524 38.8051 41.9575C38.9451 41.391 38.9083 40.7952 38.6995 40.2502C38.4907 39.7053 38.12 39.2374 37.6373 38.9095C37.1545 38.5816 36.5829 38.4095 35.9993 38.4163ZM45.5827 30.7497V26.9163C45.5827 24.3747 44.573 21.9371 42.7758 20.1399C40.9786 18.3427 38.541 17.333 35.9993 17.333C33.4577 17.333 31.0201 18.3427 29.2229 20.1399C27.4257 21.9371 26.416 24.3747 26.416 26.9163V30.7497C24.891 30.7497 23.4285 31.3555 22.3502 32.4338C21.2718 33.5121 20.666 34.9747 20.666 36.4997V49.9163C20.666 51.4413 21.2718 52.9039 22.3502 53.9822C23.4285 55.0605 24.891 55.6663 26.416 55.6663H45.5827C47.1077 55.6663 48.5702 55.0605 49.6485 53.9822C50.7269 52.9039 51.3327 51.4413 51.3327 49.9163V36.4997C51.3327 34.9747 50.7269 33.5121 49.6485 32.4338C48.5702 31.3555 47.1077 30.7497 45.5827 30.7497ZM30.2493 26.9163C30.2493 25.3913 30.8552 23.9288 31.9335 22.8505C33.0118 21.7721 34.4744 21.1663 35.9993 21.1663C37.5243 21.1663 38.9869 21.7721 40.0652 22.8505C41.1435 23.9288 41.7493 25.3913 41.7493 26.9163V30.7497H30.2493V26.9163ZM47.4993 49.9163C47.4993 50.4247 47.2974 50.9122 46.938 51.2716C46.5785 51.6311 46.091 51.833 45.5827 51.833H26.416C25.9077 51.833 25.4202 51.6311 25.0607 51.2716C24.7013 50.9122 24.4993 50.4247 24.4993 49.9163V36.4997C24.4993 35.9913 24.7013 35.5038 25.0607 35.1444C25.4202 34.7849 25.9077 34.583 26.416 34.583H45.5827C46.091 34.583 46.5785 34.7849 46.938 35.1444C47.2974 35.5038 47.4993 35.9913 47.4993 36.4997V49.9163Z" fill="#2966F5"/>
<rect x="1.2" y="1.7" width="69.6" height="69.6" rx="34.8" stroke="#2966F5" stroke-width="2.4"/>
</svg>
