<svg width="17" height="18" viewBox="0 0 17 18" fill="none" xmlns="http://www.w3.org/2000/svg">
<path d="M3.85223 3.3696L3.03864 7.488L0.637436 3.3696H3.85223ZM13.6946 3.3696C13.907 4.428 14.2382 6.066 14.4146 6.84C14.4442 6.99888 14.4175 7.1631 14.339 7.3044C14.2634 7.4412 14.1914 7.5708 14.1122 7.7076C14.1052 7.71727 14.096 7.72514 14.0854 7.73056C14.0747 7.73599 14.063 7.73882 14.051 7.73882C14.0391 7.73882 14.0273 7.73599 14.0167 7.73056C14.006 7.72514 13.9968 7.71727 13.9898 7.7076C13.7522 7.2972 12.665 5.418 11.6282 3.618L9.51864 0H7.94904L10.8074 4.9968L12.7946 8.478C12.8032 8.48731 12.808 8.49952 12.808 8.5122C12.808 8.52488 12.8032 8.53709 12.7946 8.5464L12.701 8.5968C12.6894 8.60253 12.676 8.60386 12.6635 8.60056C12.6509 8.59725 12.64 8.58953 12.6326 8.5788C12.4274 8.2476 11.5958 6.84 10.667 5.2632C9.39984 3.1392 7.97064 0.72 7.65384 0.1584C7.61011 0.207206 7.5619 0.251802 7.50983 0.2916C7.46407 0.329386 7.41598 0.364255 7.36583 0.396L6.49464 0.8892L9.83184 6.6708L11.2718 9.1908C11.298 9.23427 11.3117 9.28408 11.3114 9.3348V11.1132C11.311 11.1251 11.3078 11.1366 11.302 11.147C11.2963 11.1574 11.2881 11.1662 11.2783 11.1729C11.2685 11.1796 11.2573 11.1838 11.2455 11.1853C11.2338 11.1868 11.2218 11.1856 11.2106 11.1816L10.1774 10.8C10.0765 10.7696 9.96879 10.7696 9.86784 10.8C8.91744 11.0448 8.78784 13.248 8.78784 13.4964C8.78784 13.248 8.64744 11.0448 7.70784 10.8C7.63087 10.782 7.5508 10.782 7.47384 10.8C7.43574 10.7931 7.39673 10.7931 7.35864 10.8L6.31463 11.16C6.30317 11.1641 6.29091 11.1653 6.27887 11.1636C6.26683 11.1619 6.25538 11.1573 6.24549 11.1502C6.2356 11.1432 6.22756 11.1338 6.22204 11.123C6.21653 11.1122 6.21372 11.1002 6.21384 11.088V9.3132C6.21227 9.26874 6.22202 9.2246 6.24217 9.18493C6.26232 9.14527 6.2922 9.11136 6.32904 9.0864L7.38023 8.3268C7.41102 8.30436 7.43219 8.27114 7.43954 8.23376C7.44688 8.19638 7.43984 8.15761 7.41984 8.1252L4.70544 3.3696L4.61904 3.2184C4.57584 3.1428 4.52904 3.0708 4.47864 2.9988C4.37269 2.85577 4.25203 2.72425 4.11864 2.6064C4.16544 2.736 4.20864 2.8728 4.25184 3.0024C4.29504 3.132 4.33464 3.2472 4.37784 3.3624C4.70904 4.3272 5.03664 5.2956 5.36784 6.264C5.39094 6.32822 5.39937 6.39679 5.39252 6.46469C5.38567 6.53259 5.3637 6.5981 5.32824 6.6564L4.39944 8.2332C4.37161 8.2808 4.3261 8.31545 4.27282 8.32962C4.21954 8.34378 4.16282 8.3363 4.11504 8.3088L3.21864 7.794L8.76983 17.28L16.9022 3.3696H13.6946ZM9.19103 8.6796C9.22733 8.59615 9.23748 8.50365 9.22012 8.41431C9.20277 8.32497 9.15874 8.243 9.09384 8.1792C9.06657 8.14802 9.03357 8.12236 8.99664 8.1036C8.91 8.05359 8.80917 8.03387 8.71007 8.04756C8.61097 8.06125 8.51927 8.10757 8.44944 8.1792C8.3862 8.24404 8.34331 8.32596 8.32604 8.41487C8.30877 8.50378 8.31788 8.5958 8.35224 8.6796C8.24639 8.69822 8.15048 8.75353 8.08135 8.83582C8.01223 8.91811 7.9743 9.02213 7.97424 9.1296C7.97417 9.20473 7.99291 9.27868 8.02875 9.3447C8.06459 9.41073 8.1164 9.46673 8.17944 9.5076C8.25353 9.55839 8.34162 9.58482 8.43144 9.5832C8.49892 9.5864 8.56625 9.57448 8.62854 9.54832C8.69082 9.52216 8.74648 9.48242 8.79144 9.432C8.83975 9.48718 8.90063 9.52993 8.96893 9.55664C9.03724 9.58335 9.11097 9.59324 9.1839 9.58546C9.25683 9.57769 9.32682 9.55248 9.38796 9.51197C9.4491 9.47146 9.49959 9.41684 9.53518 9.35271C9.57078 9.28858 9.59042 9.21684 9.59245 9.14352C9.59449 9.07021 9.57886 8.99748 9.54688 8.93148C9.5149 8.86547 9.4675 8.80813 9.4087 8.76429C9.3499 8.72046 9.28142 8.69141 9.20903 8.6796H9.19103Z" fill="url(#paint0_linear_2322_17606)"/>
<defs>
<linearGradient id="paint0_linear_2322_17606" x1="0.637436" y1="8.6364" x2="16.9022" y2="8.6364" gradientUnits="userSpaceOnUse">
<stop stop-color="#CD0A73"/>
<stop offset="0.57"/>
</linearGradient>
</defs>
</svg>
